<svg xmlns="http://www.w3.org/2000/svg" width="132" height="32" fill="none"><g fill="#121212" clip-path="url(#a)"><path d="M39.818 22.888h9.28v-2.81h-5.981V9.495h-3.299zm14.775-1.873c-1.323 0-2.013-1.161-2.013-2.903s.69-2.922 2.013-2.922 2.031 1.18 2.031 2.922-.708 2.903-2.031 2.903m.018 2.173c3.075 0 5.088-2.191 5.088-5.076s-2.013-5.076-5.088-5.076c-3.056 0-5.106 2.191-5.106 5.076s2.05 5.076 5.106 5.076m10.41 3.014c1.417 0 2.665-.318 3.504-1.068.764-.693 1.267-1.742 1.267-3.184v-8.654h-2.907v1.03h-.038c-.558-.805-1.416-1.311-2.683-1.311-2.367 0-4.007 1.986-4.007 4.795 0 2.941 1.994 4.552 4.138 4.552 1.155 0 1.882-.468 2.44-1.105h.075v.955c0 1.162-.54 1.836-1.826 1.836-1.006 0-1.51-.43-1.677-.937h-2.945c.299 2.005 2.032 3.091 4.66 3.091m-.018-6.106c-1.137 0-1.883-.937-1.883-2.38 0-1.46.746-2.397 1.883-2.397 1.267 0 1.938 1.086 1.938 2.379 0 1.349-.615 2.398-1.938 2.398m10.769.916c-1.323 0-2.013-1.161-2.013-2.903s.69-2.922 2.013-2.922 2.03 1.18 2.03 2.922-.707 2.903-2.03 2.903m.018 2.173c3.075 0 5.087-2.192 5.087-5.076 0-2.885-2.012-5.077-5.087-5.077-3.056 0-5.106 2.192-5.106 5.077s2.05 5.076 5.106 5.076m5.974-.297h3.037v-9.59h-3.038zm0-10.92h3.037V9.495h-3.038zm4.355 14.084h3.037v-4.158h.037c.597.805 1.472 1.292 2.702 1.292 2.498 0 4.156-1.985 4.156-5.095 0-2.884-1.547-5.076-4.081-5.076-1.305 0-2.236.58-2.889 1.442h-.055v-1.161H86.12zm4.994-5.226c-1.305 0-2.05-1.068-2.05-2.622 0-1.555.67-2.735 1.994-2.735 1.304 0 1.92 1.086 1.92 2.735 0 1.63-.709 2.622-1.864 2.622m9.883 2.36c2.497 0 4.342-1.086 4.342-3.184 0-2.454-1.975-2.885-3.653-3.166-1.211-.224-2.292-.318-2.292-.992 0-.6.578-.88 1.323-.88.839 0 1.417.261 1.528 1.123h2.796c-.149-1.892-1.603-3.072-4.305-3.072-2.255 0-4.118 1.049-4.118 3.072 0 2.248 1.77 2.697 3.428 2.978 1.268.225 2.423.319 2.423 1.18 0 .619-.578.956-1.491.956-1.006 0-1.64-.468-1.751-1.424h-2.87c.093 2.117 1.845 3.41 4.64 3.41m8.466-.02c1.323 0 2.161-.524 2.851-1.46h.056v1.18h2.907v-9.591h-3.038v5.357c0 1.142-.633 1.93-1.677 1.93-.969 0-1.435-.581-1.435-1.63v-5.657h-3.019v6.293c0 2.136 1.156 3.578 3.355 3.578m7.138-.28h3.037V17.51c0-1.143.559-1.948 1.51-1.948.913 0 1.341.599 1.341 1.63v5.694h3.038V17.51c0-1.143.54-1.948 1.509-1.948.913 0 1.342.599 1.342 1.63v5.694h3.038v-6.238c0-2.154-1.081-3.634-3.243-3.634-1.23 0-2.255.524-3 1.686h-.037c-.485-1.03-1.435-1.686-2.684-1.686-1.379 0-2.292.656-2.888 1.648h-.056v-1.367h-2.907z"/><path fill-rule="evenodd" d="M15.609 31.472c8.577 0 15.53-6.989 15.53-15.61S24.185.252 15.608.252.079 7.241.079 15.862s6.953 15.61 15.53 15.61m2.397-19.16a3.42 3.42 0 0 0 0-4.818 3.377 3.377 0 0 0-4.794 0 3.42 3.42 0 0 0 0 4.819l2.397 2.409zm1.134 5.96a3.38 3.38 0 0 0 4.794 0 3.42 3.42 0 0 0 0-4.82 3.38 3.38 0 0 0-4.794 0l-2.397 2.41zm-1.134 5.958a3.42 3.42 0 0 0 0-4.819l-2.397-2.41-2.397 2.41a3.42 3.42 0 0 0 0 4.819 3.377 3.377 0 0 0 4.794 0M7.284 18.27a3.42 3.42 0 0 1 0-4.818 3.38 3.38 0 0 1 4.794 0l2.397 2.409-2.397 2.41a3.38 3.38 0 0 1-4.794 0" clip-rule="evenodd"/></g><defs><clipPath id="a"><path fill="#fff" d="M0 0h132v32H0z"/></clipPath></defs></svg>